<svg width="40" height="40" viewBox="0 0 40 40" fill="none" xmlns="http://www.w3.org/2000/svg">
<path fill-rule="evenodd" clip-rule="evenodd" d="M33.3333 1.66675C36.0948 1.66675 38.3333 3.90533 38.3333 6.66675V33.3334C38.3333 36.0949 36.0948 38.3334 33.3333 38.3334H6.66667C3.90525 38.3334 1.66667 36.0949 1.66667 33.3334V6.66675C1.66667 3.90533 3.90525 1.66675 6.66667 1.66675H33.3333ZM33.3333 5.00008C34.2538 5.00008 35 5.74628 35 6.66675V33.3334C35 34.2539 34.2538 35.0001 33.3333 35.0001H25V23.3332H28.4603C29.1777 23.3332 29.8145 22.8742 30.0415 22.1936L30.7798 19.9786C31.0497 19.1691 30.4472 18.3332 29.594 18.3332H25V14.9999C25 14.1666 25.8333 13.3333 26.6667 13.3333H30C30.9205 13.3333 31.6667 12.5871 31.6667 11.6666V10.5233C31.6667 9.98493 31.3228 9.50225 30.8022 9.36486C28.6175 8.78833 26.6667 8.78833 26.6667 8.78833C22.5 8.78833 20 11.6666 20 14.1666V18.3332H16.6667C15.7462 18.3332 15 19.0794 15 19.9999V21.6666C15 22.5871 15.7462 23.3332 16.6667 23.3332H20V35.0001H6.66667C5.7462 35.0001 5 34.2539 5 33.3334V6.66675C5 5.74628 5.7462 5.00008 6.66667 5.00008H33.3333Z" fill="#391D72"/>
</svg>
