<svg width="40" height="40" viewBox="0 0 40 40" fill="none" xmlns="http://www.w3.org/2000/svg">
<path fill-rule="evenodd" clip-rule="evenodd" d="M20 30C25.5228 30 30 25.5228 30 20C30 14.4771 25.5228 10 20 10C14.4771 10 10 14.4771 10 20C10 25.5228 14.4771 30 20 30ZM20 26.6667C23.6818 26.6667 26.6667 23.6818 26.6667 20C26.6667 16.3181 23.6818 13.3333 20 13.3333C16.3181 13.3333 13.3333 16.3181 13.3333 20C13.3333 23.6818 16.3181 26.6667 20 26.6667Z" fill="#391D72"/>
<path d="M30 8.33325C29.0795 8.33325 28.3333 9.07945 28.3333 9.99992C28.3333 10.9204 29.0795 11.6666 30 11.6666C30.9205 11.6666 31.6667 10.9204 31.6667 9.99992C31.6667 9.07945 30.9205 8.33325 30 8.33325Z" fill="#391D72"/>
<path fill-rule="evenodd" clip-rule="evenodd" d="M2.7566 7.12685C1.66667 9.26596 1.66667 12.0662 1.66667 17.6667V22.3334C1.66667 27.9339 1.66667 30.7342 2.7566 32.8732C3.71534 34.7549 5.24514 36.2847 7.12677 37.2434C9.26589 38.3334 12.0662 38.3334 17.6667 38.3334H22.3333C27.9338 38.3334 30.7342 38.3334 32.8732 37.2434C34.7548 36.2847 36.2847 34.7549 37.2433 32.8732C38.3333 30.7342 38.3333 27.9339 38.3333 22.3334V17.6667C38.3333 12.0662 38.3333 9.26596 37.2433 7.12685C36.2847 5.24521 34.7548 3.71541 32.8732 2.75668C30.7342 1.66675 27.9338 1.66675 22.3333 1.66675H17.6667C12.0662 1.66675 9.26589 1.66675 7.12677 2.75668C5.24514 3.71541 3.71534 5.24521 2.7566 7.12685ZM22.3333 5.00008H17.6667C14.8114 5.00008 12.8704 5.00268 11.3701 5.12525C9.90874 5.24465 9.1614 5.46106 8.64007 5.7267C7.38565 6.36586 6.36579 7.38573 5.72662 8.64015C5.46099 9.16148 5.24457 9.90881 5.12517 11.3702C5.0026 12.8705 5 14.8115 5 17.6667V22.3334C5 25.1887 5.0026 27.1296 5.12517 28.6299C5.24457 30.0914 5.46099 30.8387 5.72662 31.3601C6.36579 32.6144 7.38565 33.6342 8.64007 34.2734C9.1614 34.5391 9.90874 34.7556 11.3701 34.8749C12.8704 34.9974 14.8114 35.0001 17.6667 35.0001H22.3333C25.1887 35.0001 27.1295 34.9974 28.6298 34.8749C30.0913 34.7556 30.8387 34.5391 31.36 34.2734C32.6143 33.6342 33.6342 32.6144 34.2733 31.3601C34.539 30.8387 34.7555 30.0914 34.8748 28.6299C34.9973 27.1296 35 25.1887 35 22.3334V17.6667C35 14.8115 34.9973 12.8705 34.8748 11.3702C34.7555 9.90881 34.539 9.16148 34.2733 8.64015C33.6342 7.38573 32.6143 6.36586 31.36 5.7267C30.8387 5.46106 30.0913 5.24465 28.6298 5.12525C27.1295 5.00268 25.1887 5.00008 22.3333 5.00008Z" fill="#391D72"/>
</svg>
